<?xml version="1.0" encoding="UTF-8"?><svg width="24px" height="24px" viewBox="0 0 24 24" stroke-width="2" fill="none" xmlns="http://www.w3.org/2000/svg" color="#ffffff"><path d="M9 4H6.6C5.16 4 4 5.16 4 6.6v12.8C4 20.84 5.16 22 6.6 22h10.8c1.44 0 2.6-1.16 2.6-2.6V6.6C20 5.16 18.84 4 17.4 4H15" stroke="#ffffff" stroke-width="2" stroke-linecap="round" stroke-linejoin="round"></path><path d="M9 3.6c0-.88.72-1.6 1.6-1.6h2.8c.88 0 1.6.72 1.6 1.6v.8c0 .88-.72 1.6-1.6 1.6h-2.8C9.72 6 9 5.28 9 4.4v-.8z" stroke="#ffffff" stroke-width="2" stroke-linecap="round" stroke-linejoin="round"></path><path d="M8 12.5l2.5 2.5L16 9.5" stroke="#ffffff" stroke-width="2" stroke-linecap="round" stroke-linejoin="round"></path><path d="M8 18.5h8" stroke="#ffffff" stroke-width="2" stroke-linecap="round"></path></svg>
